<mxfile host="app.diagrams.net" modified="2023-01-31T14:34:18.704Z" agent="5.0 (Macintosh; Intel Mac OS X 10_15_7) AppleWebKit/537.36 (KHTML, like Gecko) Chrome/109.0.0.0 Safari/537.36" etag="gdDoZiisuQEB0MOfSugK" version="20.8.10" type="github">
  <diagram name="第 1 页" id="xiojKuvTW125V14zlTYo">
    <mxGraphModel dx="1026" dy="636" grid="1" gridSize="10" guides="1" tooltips="1" connect="1" arrows="1" fold="1" page="1" pageScale="1" pageWidth="827" pageHeight="1169" math="0" shadow="0">
      <root>
        <mxCell id="0" />
        <mxCell id="1" parent="0" />
        <mxCell id="0mrd0E_dALkn8bdAhU6u-13" style="edgeStyle=orthogonalEdgeStyle;rounded=0;orthogonalLoop=1;jettySize=auto;html=1;exitX=0.5;exitY=1;exitDx=0;exitDy=0;" edge="1" parent="1" source="0mrd0E_dALkn8bdAhU6u-2" target="0mrd0E_dALkn8bdAhU6u-4">
          <mxGeometry relative="1" as="geometry" />
        </mxCell>
        <mxCell id="0mrd0E_dALkn8bdAhU6u-2" value="异步任务" style="rounded=1;whiteSpace=wrap;html=1;" vertex="1" parent="1">
          <mxGeometry x="330" y="40" width="100" height="50" as="geometry" />
        </mxCell>
        <mxCell id="0mrd0E_dALkn8bdAhU6u-7" style="edgeStyle=orthogonalEdgeStyle;rounded=0;orthogonalLoop=1;jettySize=auto;html=1;exitX=1;exitY=0.5;exitDx=0;exitDy=0;entryX=0.5;entryY=0;entryDx=0;entryDy=0;" edge="1" parent="1" source="0mrd0E_dALkn8bdAhU6u-4" target="0mrd0E_dALkn8bdAhU6u-6">
          <mxGeometry relative="1" as="geometry" />
        </mxCell>
        <mxCell id="0mrd0E_dALkn8bdAhU6u-8" value="发送成功了" style="edgeLabel;html=1;align=center;verticalAlign=middle;resizable=0;points=[];" vertex="1" connectable="0" parent="0mrd0E_dALkn8bdAhU6u-7">
          <mxGeometry x="-0.6129" y="2" relative="1" as="geometry">
            <mxPoint y="1" as="offset" />
          </mxGeometry>
        </mxCell>
        <mxCell id="0mrd0E_dALkn8bdAhU6u-9" style="edgeStyle=orthogonalEdgeStyle;rounded=0;orthogonalLoop=1;jettySize=auto;html=1;entryX=0.5;entryY=0;entryDx=0;entryDy=0;" edge="1" parent="1" source="0mrd0E_dALkn8bdAhU6u-4" target="0mrd0E_dALkn8bdAhU6u-5">
          <mxGeometry relative="1" as="geometry" />
        </mxCell>
        <mxCell id="0mrd0E_dALkn8bdAhU6u-10" value="还在发送" style="edgeLabel;html=1;align=center;verticalAlign=middle;resizable=0;points=[];" vertex="1" connectable="0" parent="0mrd0E_dALkn8bdAhU6u-9">
          <mxGeometry x="-0.1234" y="-1" relative="1" as="geometry">
            <mxPoint as="offset" />
          </mxGeometry>
        </mxCell>
        <mxCell id="0mrd0E_dALkn8bdAhU6u-4" value="异步任务类型" style="rhombus;whiteSpace=wrap;html=1;" vertex="1" parent="1">
          <mxGeometry x="310" y="140" width="140" height="70" as="geometry" />
        </mxCell>
        <mxCell id="0mrd0E_dALkn8bdAhU6u-12" style="edgeStyle=orthogonalEdgeStyle;rounded=0;orthogonalLoop=1;jettySize=auto;html=1;exitX=0.5;exitY=1;exitDx=0;exitDy=0;" edge="1" parent="1" source="0mrd0E_dALkn8bdAhU6u-5" target="0mrd0E_dALkn8bdAhU6u-11">
          <mxGeometry relative="1" as="geometry" />
        </mxCell>
        <mxCell id="0mrd0E_dALkn8bdAhU6u-5" value="插入 notify_index DB" style="rounded=0;whiteSpace=wrap;html=1;" vertex="1" parent="1">
          <mxGeometry x="80" y="240" width="120" height="50" as="geometry" />
        </mxCell>
        <mxCell id="0mrd0E_dALkn8bdAhU6u-6" value="更新站内信任务状态为 &lt;b&gt;已发送&lt;/b&gt; 状态" style="rounded=0;whiteSpace=wrap;html=1;" vertex="1" parent="1">
          <mxGeometry x="560" y="240" width="120" height="50" as="geometry" />
        </mxCell>
        <mxCell id="0mrd0E_dALkn8bdAhU6u-11" value="更新 notify_index_db 缓存" style="rounded=0;whiteSpace=wrap;html=1;" vertex="1" parent="1">
          <mxGeometry x="80" y="350" width="120" height="50" as="geometry" />
        </mxCell>
      </root>
    </mxGraphModel>
  </diagram>
</mxfile>
